<svg width="120" height="48" viewBox="0 0 120 48" fill="none" xmlns="http://www.w3.org/2000/svg">
<path fill-rule="evenodd" clip-rule="evenodd" d="M33.0606 14.3572L23.1953 33.643H13.9288L18.0575 25.6501H17.8723C14.4662 30.0717 9.38414 32.9824 2.14307 33.643V25.7608C2.14307 25.7608 6.77536 25.4871 9.49855 22.6241H2.14307V14.3573H10.4098V21.1566L10.5954 21.1559L13.9735 14.3573H20.2255V21.1135L20.4109 21.1132L23.9158 14.3572H33.0606Z" fill="black"/>
<path d="M86.8579 31.5143H89.5203V16.2322H86.8579V31.5143Z" fill="black"/>
<path fill-rule="evenodd" clip-rule="evenodd" d="M72.1796 31.3582C72.7582 31.5987 73.3467 31.719 73.9448 31.719C74.933 31.719 75.8173 31.4785 76.5975 30.9973C77.3776 30.5162 77.9823 29.8531 78.4114 29.0079C78.8405 28.1562 79.055 27.1906 79.055 26.1113C79.055 25.0321 78.834 24.0666 78.3919 23.2149C77.9498 22.3632 77.3354 21.7033 76.5486 21.2352C75.762 20.7606 74.868 20.5265 73.8667 20.533C73.2297 20.533 72.6185 20.6565 72.0333 20.9036C71.4482 21.1507 70.9606 21.5018 70.5705 21.9569C70.5403 21.9915 70.5111 22.0265 70.4827 22.0619V16.2419H67.8105V31.5143H70.4632L70.4579 30.0875C70.5264 30.1717 70.5998 30.2538 70.6777 30.3342C71.1003 30.7698 71.601 31.1111 72.1796 31.3582ZM74.9103 28.8909C74.4747 29.1574 73.9773 29.2907 73.4181 29.2907C72.8655 29.2907 72.3584 29.1541 71.8968 28.8811C71.4351 28.6015 71.0678 28.2212 70.7947 27.74C70.5281 27.259 70.3948 26.7127 70.3948 26.1016C70.3884 25.4905 70.5184 24.9443 70.785 24.4632C71.0581 23.9756 71.4254 23.5985 71.887 23.332C72.3486 23.0589 72.859 22.9256 73.4181 22.9321C73.9773 22.9256 74.4747 23.0556 74.9103 23.3222C75.3524 23.5823 75.6904 23.9561 75.9245 24.4437C76.1651 24.9248 76.2854 25.4775 76.2854 26.1016C76.2854 26.7258 76.1651 27.2785 75.9245 27.7595C75.6904 28.2407 75.3524 28.6178 74.9103 28.8909Z" fill="black"/>
<path d="M36.918 17.1587H39.9607L42.6826 27.099L45.5782 17.1587H48.1138L51.2541 26.8995L53.8677 17.1587H56.6569L52.5414 31.5143H49.918L46.7247 21.9982L43.7935 31.5143H41.1408L36.918 17.1587Z" fill="black"/>
<path fill-rule="evenodd" clip-rule="evenodd" d="M61.1502 31.7677C60.0903 31.7743 59.1346 31.5402 58.2829 31.0656C57.4377 30.5844 56.7713 29.918 56.2836 29.0663C55.8025 28.2146 55.562 27.2426 55.562 26.1503C55.562 25.0906 55.8091 24.1316 56.3032 23.2734C56.7973 22.4152 57.4669 21.7455 58.3122 21.2644C59.1574 20.7833 60.1001 20.5427 61.1403 20.5427C62.3107 20.5427 63.3346 20.8028 64.2123 21.3229C65.0966 21.843 65.7565 22.581 66.1921 23.5367C66.6342 24.4859 66.7935 25.5749 66.67 26.8038H58.3164C58.3397 27.2933 58.4619 27.7387 58.6828 28.1399C58.9299 28.5819 59.2744 28.9265 59.7165 29.1736C60.1587 29.4206 60.6527 29.5442 61.1989 29.5442C61.615 29.5376 62.0019 29.4662 62.3594 29.3297C62.7171 29.1866 63.0193 28.9949 63.2664 28.7542C63.52 28.5137 63.6988 28.2407 63.8028 27.9351H66.592C66.4229 28.6827 66.0849 29.3492 65.5778 29.9343C65.0706 30.513 64.4335 30.9648 63.6662 31.2899C62.8991 31.6149 62.0604 31.7743 61.1502 31.7677ZM58.6925 24.1219C58.5367 24.3936 58.4287 24.6861 58.3686 24.9996H63.9061C63.866 24.6036 63.7437 24.2427 63.5395 23.9171C63.3054 23.5335 62.9868 23.2376 62.5838 23.0296C62.1807 22.815 61.7255 22.7078 61.2184 22.7078C60.6788 22.7078 60.1879 22.8313 59.7458 23.0783C59.3037 23.3254 58.9526 23.6733 58.6925 24.1219Z" fill="black"/>
<path d="M81.0158 20.7671C81.0158 19.8959 81.214 19.1222 81.6106 18.446C82.0071 17.7633 82.5631 17.2335 83.2783 16.8564C83.9999 16.4728 84.842 16.2745 85.8041 16.2615V18.6313C85.3555 18.6378 84.9719 18.7321 84.6534 18.9141C84.3413 19.0897 84.1007 19.3465 83.9317 19.6846C83.7761 19.9958 83.6921 20.3567 83.6798 20.7671H85.7456V23.0199H83.6782V31.5143H81.0158V23.0199H79.2993V20.7671H81.0158Z" fill="black"/>
<path fill-rule="evenodd" clip-rule="evenodd" d="M96.2878 31.7482C95.202 31.7482 94.23 31.5109 93.3718 31.0364C92.5201 30.5552 91.8504 29.8921 91.3628 29.0468C90.8816 28.1951 90.6411 27.2297 90.6411 26.1503C90.6411 25.0646 90.8816 24.0959 91.3628 23.2441C91.8504 22.3859 92.5201 21.7195 93.3718 21.2449C94.23 20.7703 95.202 20.533 96.2878 20.533C97.38 20.533 98.3553 20.7703 99.2134 21.2449C100.078 21.7195 100.751 22.3827 101.232 23.2344C101.713 24.0861 101.957 25.0581 101.964 26.1503C101.957 27.2297 101.713 28.1951 101.232 29.0468C100.758 29.8921 100.088 30.5552 99.2232 31.0364C98.3585 31.5109 97.38 31.7482 96.2878 31.7482ZM96.2878 29.3004C96.8599 29.3004 97.367 29.1704 97.8091 28.9103C98.2513 28.6437 98.5925 28.2731 98.8332 27.7985C99.0737 27.3174 99.1939 26.768 99.1939 26.1503C99.1939 25.5262 99.0737 24.9735 98.8332 24.4924C98.5925 24.0113 98.2513 23.6407 97.8091 23.3807C97.367 23.1141 96.8599 22.9808 96.2878 22.9808C95.7222 22.9808 95.2183 23.1141 94.7761 23.3807C94.3406 23.6407 94.0024 24.0113 93.7619 24.4924C93.5213 24.9735 93.4043 25.5262 93.4108 26.1503C93.4108 26.768 93.5311 27.3174 93.7716 27.7985C94.0187 28.2731 94.3567 28.6437 94.7859 28.9103C95.2215 29.1704 95.7222 29.3004 96.2878 29.3004Z" fill="black"/>
<path d="M104.841 20.7671H101.876L105.084 31.5143H107.679L109.789 24.65L112.067 31.5143H114.622L117.841 20.7671H115.159L113.333 27.4566L111.316 20.7671H108.722L106.714 27.6039L104.841 20.7671Z" fill="black"/>
</svg>
