<?xml version="1.0" encoding="iso-8859-1"?>
<!-- Uploaded to: SVG Repo, www.svgrepo.com, Generator: SVG Repo Mixer Tools -->
<!DOCTYPE svg PUBLIC "-//W3C//DTD SVG 1.1//EN" "http://www.w3.org/Graphics/SVG/1.1/DTD/svg11.dtd">
<svg fill="#000000" version="1.1" id="Capa_1" xmlns="http://www.w3.org/2000/svg" xmlns:xlink="http://www.w3.org/1999/xlink" 
	 width="800px" height="800px" viewBox="0 0 385.054 385.054"
	 xml:space="preserve">
<g>
	<g>
		<path d="M346.446,201.622c2.589-0.741,4.889-3.118,4.889-6.087c0-3.05-1.703-6.016-5.871-6.016c-3.851,0-5.782,2.597-5.782,5.57
			C339.682,198.355,342.567,200.436,346.446,201.622z"/>
		<path d="M344.735,210.025c-3.72,1.034-5.871,3.711-5.871,7.197c-0.064,3.482,2.604,6.757,6.836,6.757
			c3.939,0,6.608-2.601,6.608-6.02C352.301,213.736,349.111,211.208,344.735,210.025z"/>
		<path d="M376.189,100.963c-5.242-1.549-10.9,0.509-13.906,5.093c-24.653,37.792-95.617,62.206-180.743,62.206
			c-87.462,0-156.284-27.13-156.763-61.783v-0.886c0-0.621-0.096-1.214-0.18-1.813c0.078-0.541,0.166-1.092,0.18-1.655
			c0.159-14.092,5.26-25.357,15.621-34.48C81.844,31.164,186.596,42.902,188.01,43.052c59.248,5.202,91.997,24.788,91.997,36.345
			c0,12.96-38.531,32.129-91.904,32.414c-12.848-0.256-24.375-1.709-34.632-3.829c6.045,0.314,11.868,0.487,17.079,0.487
			c33.652,0,90.63-5.789,90.63-27.461c0-21.67-56.978-27.453-90.63-27.453c-33.67,0-90.632,5.783-90.632,27.453
			c0,0.728,0.227,1.395,0.353,2.088v57.212c25.483,8.926,60.198,14.917,101.27,14.917c47.392,0,90.8-8.057,123.245-21.684V79.397
			c0-37.612-61.747-56.383-114.248-60.989C185.788,17.867,73.779,5.29,24.039,49.023C8.323,62.857,0.247,80.622,0,101.841
			c0,0.697,0.08,1.377,0.18,2.044c-0.076,0.517-0.164,1.034-0.18,1.575v188.028c0,3.887,1.821,7.554,4.937,9.891
			c8.253,6.211,16.607,11.922,25.055,17.256v-55.924h30.969v73.296c21.375,10.503,43.34,18.286,65.808,23.407v-71.26h30.956v76.578
			c11.162,1.298,22.429,1.995,33.794,1.995c14.355,0,28.14-1.05,41.308-2.837v-75.736h30.974v69.993
			c25.499-6.019,47.761-14.419,65.81-22.714v-72.723h30.97v56.553c11.778-6.953,18.631-12.034,19.528-12.724
			c3.105-2.349,4.945-6.011,4.945-9.891V112.823C385.054,107.345,381.451,102.516,376.189,100.963z M92.289,81.165
			c1.721-5.316,30.118-15.222,78.261-15.222c48.144,0,76.54,9.915,78.264,14.908c-1.724,5.314-30.12,15.222-78.264,15.222
			C122.407,96.072,94.01,86.164,92.289,81.165z M39.589,231.782c-5.871,0-10.778-1.335-13.447-2.745l2.074-8.464
			c2.086,1.038,6.468,2.376,10.856,2.376c4.681,0,9.656-2.236,9.656-7.357c0-4.985-3.941-8.027-13.598-8.027
			c-2.667,0-4.522,0.152-6.45,0.453l3.116-25.335H58.4v9.289H39.678l-1.046,7.426c1.046-0.144,1.932-0.144,3.109-0.144
			c4.619,0,9.368,1.042,12.71,3.49c3.635,2.444,5.856,6.46,5.856,12.103C60.308,223.839,52.6,231.782,39.589,231.782z
			 M143.592,258.11c-12.93,0-19.24-9.594-19.24-21.106c0-9.062,3.344-16.635,8.618-21.544c4.749-4.376,11.07-6.685,18.568-7.046
			c2.088-0.229,3.492-0.16,4.534-0.084v8.696c-1.254-0.08-2.603,0-4.386,0.137c-10.026,0.821-14.493,5.95-15.749,11.521h0.214
			c2.376-2.384,5.791-3.795,10.257-3.795c8.095,0,14.934,5.735,14.934,15.758C161.351,250.236,153.995,258.11,143.592,258.11z
			 M266.698,216.137l-19.9,41.152h-11.955l19.905-38.848v-0.152h-22.141V209h34.106v7.137H266.698z M345.248,231.782
			c-12.251,0-17.901-6.905-17.901-13.445c0-5.791,3.342-9.806,8.616-12.106v-0.145c-4.673-2.456-6.974-6.388-6.974-10.636
			c0-8.163,7.366-13.587,17.004-13.587c11.293,0,15.97,6.536,15.97,12.401c0,4.163-2.216,8.247-7.045,10.615v0.232
			c4.745,1.779,8.912,5.787,8.912,11.95C363.818,225.847,356.465,231.782,345.248,231.782z"/>
		<path d="M142.707,232.924c-3.056,0-5.581,1.855-6.612,4.24c-0.383,0.661-0.517,1.551-0.517,2.889
			c0.21,5.122,2.667,9.73,7.865,9.73c3.941,0,6.472-3.643,6.472-8.548C149.914,236.779,147.533,232.924,142.707,232.924z"/>
	</g>
</g>
</svg>