<?xml version="1.0" encoding="utf-8"?>

<!-- Uploaded to: SVG Repo, www.svgrepo.com, Generator: SVG Repo Mixer Tools -->
<svg version="1.1" id="Icons" xmlns="http://www.w3.org/2000/svg" xmlns:xlink="http://www.w3.org/1999/xlink" 
	 viewBox="0 0 32 32" xml:space="preserve">
<style type="text/css">
	.st0{fill:none;stroke:#000000;stroke-width:2;stroke-linecap:round;stroke-linejoin:round;stroke-miterlimit:10;}
</style>
<path d="M31,8H1C0.4,8,0,8.4,0,9v14c0,0.6,0.4,1,1,1h30c0.6,0,1-0.4,1-1V9C32,8.4,31.6,8,31,8z M9,17H8v1c0,0.6-0.4,1-1,1
	s-1-0.4-1-1v-1H5c-0.6,0-1-0.4-1-1s0.4-1,1-1h1v-1c0-0.6,0.4-1,1-1s1,0.4,1,1v1h1c0.6,0,1,0.4,1,1S9.6,17,9,17z M13,19h-1
	c-0.6,0-1-0.4-1-1s0.4-1,1-1h1c0.6,0,1,0.4,1,1S13.6,19,13,19z M17,19h-1c-0.6,0-1-0.4-1-1s0.4-1,1-1h1c0.6,0,1,0.4,1,1
	S17.6,19,17,19z M21,18c-1.1,0-2-0.9-2-2s0.9-2,2-2s2,0.9,2,2S22.1,18,21,18z M26,18c-1.1,0-2-0.9-2-2s0.9-2,2-2s2,0.9,2,2
	S27.1,18,26,18z"/>
</svg>