<?xml version="1.0" encoding="iso-8859-1"?>
<!-- Uploaded to: SVG Repo, www.svgrepo.com, Generator: SVG Repo Mixer Tools -->
<!DOCTYPE svg PUBLIC "-//W3C//DTD SVG 1.1//EN" "http://www.w3.org/Graphics/SVG/1.1/DTD/svg11.dtd">
<svg fill="#000000" version="1.1" id="Capa_1" xmlns="http://www.w3.org/2000/svg" xmlns:xlink="http://www.w3.org/1999/xlink" 
	 width="800px" height="800px" viewBox="0 0 495.25 495.25"
	 xml:space="preserve">
<g>
	<g>
		<g id="Icons_18_">
			<g>
				<path d="M247.602,0C159.289,0,87.436,71.862,87.436,160.193c0,56.324,29.285,107.875,77.094,136.87v22.071
					c0,18.044,14.676,32.718,32.732,32.718h100.713c18.037,0,32.711-14.674,32.711-32.718v-22.081
					c47.828-28.983,77.129-80.528,77.129-136.86C407.814,71.862,335.945,0,247.602,0z M306.355,272.621
					c-5.477,2.875-8.913,8.549-8.913,14.731v30.935h-33.2v-96.965l47.531-47.528c6.496-6.492,6.496-17.011,0-23.506
					c-6.488-6.491-17.018-6.491-23.503,0l-40.658,40.642l-40.627-40.642c-6.494-6.491-17.016-6.491-23.512,0
					c-6.494,6.495-6.494,17.015,0,23.506l47.518,47.528v96.965h-33.215v-30.925c0-6.186-3.443-11.859-8.91-14.725
					c-42.063-22.021-68.182-65.106-68.182-112.444c0-69.995,56.93-126.944,126.916-126.944c70.019,0,126.972,56.949,126.972,126.944
					C374.572,207.53,348.432,250.609,306.355,272.621z"/>
				<path d="M305.381,418.769H189.875c-9.188,0-16.627,7.444-16.627,16.625c0,9.183,7.439,16.625,16.627,16.625h22.564v8.053
					c0,19.431,15.744,35.179,35.174,35.179c19.438,0,35.186-15.748,35.186-35.179v-8.053h22.584c9.188,0,16.621-7.443,16.621-16.625
					C322.002,426.214,314.568,418.769,305.381,418.769z"/>
				<path d="M305.381,368.896H189.875c-9.188,0-16.627,7.443-16.627,16.625s7.439,16.625,16.627,16.625h115.506
					c9.188,0,16.621-7.443,16.621-16.625C322.002,376.341,314.568,368.896,305.381,368.896z"/>
			</g>
		</g>
	</g>
</g>
</svg>