<?xml version="1.0" encoding="iso-8859-1"?>
<!-- Uploaded to: SVG Repo, www.svgrepo.com, Generator: SVG Repo Mixer Tools -->
<!DOCTYPE svg PUBLIC "-//W3C//DTD SVG 1.1//EN" "http://www.w3.org/Graphics/SVG/1.1/DTD/svg11.dtd">
<svg fill="#000000" version="1.1" id="Capa_1" xmlns="http://www.w3.org/2000/svg" xmlns:xlink="http://www.w3.org/1999/xlink" 
	 width="800px" height="800px" viewBox="0 0 411.821 411.821"
	 xml:space="preserve">
<g>
	<g>
		<rect x="312.525" y="235.172" width="23.791" height="23.762"/>
		<path d="M397.409,124.047H219.571c-1.729-12.917-6.941-31.667-22.088-48.218c-20.702-22.59-53.034-34.054-96.089-34.054
			c-7.95,0-14.412,6.455-14.412,14.421c0,7.962,6.461,14.423,14.412,14.423c34.422,0,59.511,8.203,74.543,24.395
			c8.972,9.653,12.767,20.641,14.403,29.039H14.412C6.449,124.053,0,130.518,0,138.479v217.148c0,7.956,6.449,14.418,14.412,14.418
			h382.998c7.963,0,14.412-6.462,14.412-14.418V138.474C411.821,130.512,405.372,124.047,397.409,124.047z M144.055,261.467h-28.234
			v28.24c0,7.963-6.464,14.418-14.427,14.418c-7.95,0-14.412-6.455-14.412-14.418v-28.24H58.745
			c-7.962,0-14.423-6.461-14.423-14.424c0-7.956,6.461-14.417,14.423-14.417h28.237v-28.234c0-7.966,6.461-14.427,14.412-14.427
			c7.962,0,14.427,6.461,14.427,14.427v28.234h28.234c7.962,0,14.427,6.461,14.427,14.417
			C158.482,255.006,152.018,261.467,144.055,261.467z M272.45,269.418c0,4.936-4,8.923-8.924,8.923h-41.625
			c-4.924,0-8.923-3.987-8.923-8.923v-41.613c0-4.931,3.999-8.924,8.923-8.924h41.625c4.924,0,8.924,3.993,8.924,8.924V269.418z
			 M354.151,267.856c0,4.936-3.999,8.917-8.911,8.917h-41.625c-4.925,0-8.924-3.981-8.924-8.917v-41.62
			c0-4.924,3.999-8.91,8.924-8.91h41.625c4.912,0,8.911,3.986,8.911,8.91V267.856z"/>
		<rect x="230.824" y="236.733" width="23.779" height="23.772"/>
	</g>
</g>
</svg>