<svg width="19" height="19" viewBox="0 0 19 19" fill="none" xmlns="http://www.w3.org/2000/svg">
<path fill-rule="evenodd" clip-rule="evenodd" d="M1.83301 0.242676C1.00458 0.242676 0.333008 0.914246 0.333008 1.74268V16.7427C0.333008 17.5711 1.00458 18.2427 1.83301 18.2427H16.833C17.6614 18.2427 18.333 17.5711 18.333 16.7427V1.74268C18.333 0.914246 17.6614 0.242676 16.833 0.242676H1.83301ZM5.85377 4.2454C5.8594 5.20165 5.14362 5.79087 4.29424 5.78665C3.49408 5.78243 2.79658 5.1454 2.8008 4.24681C2.80502 3.40165 3.47299 2.72243 4.34065 2.74212C5.22096 2.76181 5.8594 3.40728 5.85377 4.2454ZM9.61271 7.00444H7.09272H7.09131V15.5643H9.75471V15.3646C9.75471 14.9847 9.75441 14.6047 9.75411 14.2246C9.75331 13.2108 9.75241 12.1959 9.75761 11.1824C9.75901 10.9363 9.77021 10.6804 9.83351 10.4455C10.0711 9.56798 10.8601 9.00128 11.7404 9.14058C12.3057 9.22908 12.6797 9.55678 12.8372 10.0898C12.9343 10.423 12.9779 10.7816 12.9821 11.129C12.9935 12.1766 12.9919 13.2242 12.9903 14.2719C12.9897 14.6417 12.9891 15.0117 12.9891 15.3815V15.5629H15.661V15.3576C15.661 14.9056 15.6608 14.4537 15.6605 14.0018C15.66 12.8723 15.6594 11.7428 15.6624 10.6129C15.6638 10.1024 15.609 9.59898 15.4838 9.10538C15.2968 8.37128 14.9101 7.76378 14.2815 7.32508C13.8357 7.01287 13.3463 6.81178 12.7993 6.78928C12.737 6.78669 12.6742 6.7833 12.6111 6.77989C12.3314 6.76477 12.0471 6.74941 11.7797 6.80334C11.0147 6.95662 10.3426 7.30678 9.83491 7.92408C9.77591 7.99488 9.71821 8.06678 9.63211 8.17408L9.61271 8.19838V7.00444ZM3.01465 15.5671H5.66543V7.01001H3.01465V15.5671Z" fill="black"/>
</svg>
