<svg width="19" height="18" viewBox="0 0 19 18" fill="none" xmlns="http://www.w3.org/2000/svg">
<path fill-rule="evenodd" clip-rule="evenodd" d="M9.33301 0C4.36446 0 0.333008 4.03145 0.333008 9C0.333008 13.9686 4.36446 18 9.33301 18C14.2918 18 18.333 13.9686 18.333 9C18.333 4.03145 14.2918 0 9.33301 0ZM15.2777 4.14859C16.3514 5.45662 16.9957 7.1258 17.0152 8.9317C16.7614 8.8829 14.2234 8.3655 11.666 8.6876C11.6074 8.5607 11.5586 8.4241 11.5 8.2874C11.3438 7.9165 11.1682 7.5358 10.9924 7.1746C13.8232 6.0228 15.1117 4.36334 15.2777 4.14859ZM9.33301 1.32755C11.2853 1.32755 13.0716 2.05966 14.4285 3.26031C14.2918 3.45553 13.1302 5.00759 10.397 6.03253C9.13781 3.71909 7.74191 1.82538 7.52721 1.53254C8.10301 1.39588 8.70831 1.32755 9.33301 1.32755ZM6.06297 2.04989C6.26795 2.32321 7.63451 4.22668 8.91331 6.49131C5.32108 7.448 2.14863 7.4284 1.80698 7.4284C2.30481 5.04664 3.91544 3.06507 6.06297 2.04989ZM1.64104 9.0098C1.64104 8.9317 1.64104 8.8536 1.64104 8.7755C1.97292 8.7852 5.70177 8.8341 9.53801 7.6822C9.76251 8.1117 9.96751 8.551 10.1627 8.9902C10.0651 9.0195 9.95771 9.0488 9.86011 9.0781C5.897 10.3568 3.78854 13.8514 3.61284 14.1442C2.39266 12.7874 1.64104 10.9816 1.64104 9.0098ZM9.33301 16.692C7.55641 16.692 5.91653 16.0868 4.61826 15.0716C4.75492 14.7885 6.31672 11.782 10.6508 10.269C10.6703 10.2592 10.6801 10.2592 10.6996 10.2495C11.7831 13.051 12.2224 15.4034 12.3395 16.077C11.4122 16.4772 10.397 16.692 9.33301 16.692ZM13.6182 15.3742C13.5402 14.9056 13.1302 12.6605 12.1247 9.898C14.5358 9.5173 16.6443 10.1421 16.9079 10.23C16.576 12.3677 15.346 14.2126 13.6182 15.3742Z" fill="black"/>
</svg>
